<?xml version="1.0" encoding="utf-8"?>
<!-- Generator: Adobe Illustrator 19.1.0, SVG Export Plug-In . SVG Version: 6.00 Build 0)  -->
<svg version="1.1" id="Layer_1" xmlns="http://www.w3.org/2000/svg" xmlns:xlink="http://www.w3.org/1999/xlink" x="0px" y="0px"
	 viewBox="182 140.9 960 560" style="enable-background:new 182 140.9 960 560;" xml:space="preserve">
<style type="text/css">
	.st0{fill:none;stroke:#EDEDED;stroke-miterlimit:10;}
	.st1{fill:#EDEDED;}
</style>
<path class="st0" d="M668.2,407.5v7.8c-1.8-1.3-4.1-2.1-6.5-2.1c-6.2,0-11.3,5-11.3,11.3c0,6.2,5,11.3,11.3,11.3
	c2.4,0,4.7-0.8,6.5-2.1v1.4h4.8v-27.6L668.2,407.5L668.2,407.5z M661.6,431c-3.6,0-6.5-2.9-6.5-6.5s2.9-6.5,6.5-6.5
	c3.6,0,6.5,2.9,6.5,6.5C668.2,428.1,665.2,431,661.6,431z"/>
<path class="st0" d="M672.9,412.2v12.3c0,3.8-1.9,7.1-4.8,9.2c-1.8,1.3-4.1,2.1-6.5,2.1c-6.2,0-11.3-5-11.3-11.3h4.8
	c0,3.6,2.9,6.5,6.5,6.5c3.6,0,6.5-2.9,6.5-6.5v-12.3L672.9,412.2L672.9,412.2z"/>
<circle class="st1" cx="670.5" cy="409.8" r="1.5"/>
</svg>
